<?xml version="1.0" encoding="UTF-8"?>
<svg width="150px" height="52px" viewBox="0 0 150 52" version="1.1" xmlns="http://www.w3.org/2000/svg" xmlns:xlink="http://www.w3.org/1999/xlink">
    <!-- Generator: Sketch 52.2 (67145) - http://www.bohemiancoding.com/sketch -->
    <title>logo</title>
    <desc>Created with Sketch.</desc>
    <g id="页面-1" stroke="none" stroke-width="1" fill="none" fill-rule="evenodd">
        <g id="全部" transform="translate(-35.000000, -61.000000)" fill="#0053AF">
            <path d="M50,75.9103143 C50,80.3228738 45.9697218,82 41.5978122,82 C40.1024226,82 37.4512705,81.9500454 35,81.0556343 L35,77.4872508 C36.6915485,78.0951248 39.1325099,78.6401347 40.782822,78.6401347 C43.3523606,78.6401347 44.8569138,77.5795825 44.8569138,76.412947 C44.8569138,75.0933608 43.8815601,74.5556476 40.1834635,72.7721575 C38.8146465,72.1123644 35.2141998,70.9157 35.2141998,66.6934169 C35.2141998,63.2047362 38.0864245,61 42.9955518,61 C45.6315267,61 47.083389,61.2957984 48.6068422,61.8691533 L48.6068422,65.1936575 C47.3969569,64.6219864 45.9602719,63.8872615 43.8534965,63.8872615 C41.5265077,63.8872615 39.9286001,64.78925 39.9286001,66.4054766 C39.9286001,67.0324344 40.03885,67.8412493 42.6086749,69.0553135 C45.7251675,70.5275699 50,71.4974742 50,75.9103143 Z M180.600207,61 L185,61 L185,81 L180.600207,81 L180.600207,72.7186369 L173.40006,72.7186369 L173.40006,81 L169,81 L169,61 L173.40006,61 L173.40006,69.2810847 L180.600207,69.2810847 L180.600207,61 Z M125.023966,77.3006228 C126.346182,75.8468889 126.400172,73.3671219 126.400172,71.5140322 C126.400172,69.6615037 126.346182,67.1531111 125.023966,65.6993772 C124.267841,64.8445368 123.107059,64.3598653 122,64.3598653 C120.892941,64.3598653 119.732961,64.8445368 118.977103,65.6993772 C117.653818,67.1531111 117.600362,69.6615037 117.600362,71.5140322 C117.600362,73.3671219 117.653818,75.8468889 118.977103,77.3006228 C119.732961,78.1554632 120.892941,78.6401347 122,78.6401347 C123.107059,78.6401347 124.267841,78.1554632 125.023966,77.3006228 Z M128.244914,63.2855616 C130.602025,65.4858075 131,68.2001924 131,71.5140322 C131,74.8284332 130.602025,77.5144732 128.244914,79.7141578 C126.592077,81.2571364 124.326642,82 122,82 C119.673626,82 117.408458,81.2571364 115.754818,79.7141578 C113.398242,77.5144732 113,74.8284332 113,71.5140322 C113,68.2001924 113.398242,65.4858075 115.754818,63.2855616 C117.408458,61.742583 119.673626,61 122,61 C124.326642,61 126.592077,61.742583 128.244914,63.2855616 Z M103.795256,73.7640737 L106.625035,61 L111,61 L106.56629,81 L102.088591,81 L98.5004176,67.6086642 L94.9122446,81 L90.4345454,81 L86,61 L90.3746868,61 L93.2050226,73.7640737 L96.6247564,61 L100.375244,61 L103.795256,73.7640737 Z M77.4783899,69.4325408 L81.7816097,61 L86,61 L79.4713471,72.7272677 L79.4713471,81 L74.8513588,81 L74.8513588,72.907957 L69,61 L73.4492555,61 L77.4783899,69.4325408 Z M51,81 L51,61 L56,61 L56,81 L51,81 Z M64.1832815,61 L69,61 L63.2754536,69.175845 L68.8615029,81 L63.61819,81 L58,69.7900217 L64.1832815,61 Z M149.377117,67.0418175 C149.377117,69.110975 148.32852,71.233866 145.699806,72.5376691 L150,81 L145.013607,81 L140.074424,71.2814745 C143.514857,70.230191 144.701472,68.5858901 144.701472,67.0418175 C144.701472,65.5840526 143.831713,63.9166435 141.792558,63.9166435 L138.364066,63.9166435 L138.364066,81 L134,81 L134,61 L142.704804,61 C146.342683,61 149.377117,63.3943427 149.377117,67.0418175 Z M167,65.3334261 L160.883868,65.3334261 L160.883868,82 L156.323365,82 L156.323365,65.3334261 L151.493848,65.3334261 L150,62 L165.506706,62 L167,65.3334261 Z M159.376861,99.0416232 C159.376861,101.111088 158.328578,103.234008 155.699399,104.537551 L160,113 L155.013503,113 L150.074213,103.281339 C153.514527,102.230319 154.701378,100.585996 154.701378,99.0416232 C154.701378,97.5841164 153.831928,95.9166841 151.792565,95.9166841 L148.363914,95.9166841 L148.363914,113 L144,113 L144,93 L152.704502,93 C156.342532,93 159.376861,95.394376 159.376861,99.0416232 Z M131.094952,105.764251 L134.712688,93 L139,93 L133.357981,113 L128.990723,113 L123,93 L127.287585,93 L131.094952,105.764251 Z M94,112 L94,109 L100,109 L100,112 L94,112 Z M105.015248,100.3958 L109.871896,100.3958 L109.871896,97.6876439 L105.015248,97.6876439 L105.015248,100.3958 Z M105.015248,105.570153 L109.871896,105.570153 L109.871896,102.688132 L105.015248,102.688132 L105.015248,105.570153 Z M109.871896,110.39566 L109.871896,107.861369 L105.015248,107.861369 L105.015248,109.354148 C105.015248,109.929324 105.472973,110.39566 106.037801,110.39566 L109.871896,110.39566 Z M118,97.6876439 L113.246622,97.6876439 L113.246622,100.3958 L118,100.3958 L118,102.688132 L113.246622,102.688132 L113.246622,105.569036 L118,105.569036 L118,107.861369 L113.246622,107.861369 L113.246622,110.39566 L118,110.39566 L118,113 L105.015248,113 C103.322133,113 101.948137,111.600991 101.948137,109.874904 L101.948137,97.9993721 L100,97.9993721 L102.60966,93 L106.199416,93 L104.948685,95.3961487 L109.871896,95.3961487 L109.871896,93 L113.246622,93 L113.246622,95.3961487 L118,95.3961487 L118,97.6876439 Z M97.2176921,105.440432 L100,105.440432 L100,108 L95.2672388,108 C94.8667345,108 94.497323,107.844009 94.2024353,107.581738 C93.7071722,107.141192 93.5687354,106.344666 93.8609086,105.707274 L95.9752158,101.104394 L94.4872055,101.104394 C94.1950323,101.104394 93.9184055,101.019827 93.6753391,100.872693 C93.0490423,100.491001 92.8197949,99.5827667 93.1519445,98.8588081 L95.8434418,93 L99.0773349,93 L96.236543,99.1845037 L98.8359959,99.1845037 C99.3729628,99.1845037 99.7243603,99.8176104 99.5249718,100.37615 C99.5168285,100.419576 99.5032563,100.463574 99.4840084,100.505857 L97.2176921,105.440432 Z M77,108 L77,93 L80,93 L80,108 L77,108 Z M71.1845807,98 L69.3946135,95.0375056 L64.6065146,95.0375056 L62.8142913,98 L59,98 L61.9030916,93.1967059 C61.9769803,93.0759042 62.1193993,93 62.2753552,93 L70.6354919,93 L70.6354919,93.0054572 C71.5007227,93.0585405 72.279938,93.4995783 72.6908379,94.1792429 L75,98 L71.1845807,98 Z M64.924564,110.156337 L75,110.156337 L75,113 L63.853832,113 C61.7252754,113 60,111.23707 60,109.062418 L60,99.43663 C60,99.1954579 60.1913148,99 60.4282354,99 L74.1696306,99 C74.406838,99 74.5981528,99.1954579 74.5981528,99.43663 L74.5981528,105.228864 C74.5981528,106.738608 73.4006425,107.963223 71.9217531,107.963223 L66.3865305,107.963223 L65.0768701,105.337875 L70.7443208,105.337875 C70.9812414,105.337875 71.1725562,105.142418 71.1725562,104.901245 L71.1725562,101.405861 L63.4253098,101.405861 L63.4253098,108.624615 C63.4253098,109.470916 64.0970629,110.156337 64.924564,110.156337 Z M82.0235514,93 L85,93 L85,109.457964 C85,111.414568 83.5841745,113 81.8368847,113 L78.2859813,113 L77,110.291844 L80.9075389,110.291844 C81.5233645,110.291844 82.0235514,109.731738 82.0235514,109.041303 L82.0235514,93 Z" id="logo"></path>
        </g>
    </g>
</svg>